<svg width="34" height="34" viewBox="0 0 34 34" fill="none" xmlns="http://www.w3.org/2000/svg">
<path d="M13.855 13.5055C16.9846 13.5055 19.5217 10.9684 19.5217 7.83879C19.5217 4.70917 16.9846 2.17212 13.855 2.17212C10.7254 2.17212 8.18833 4.70917 8.18833 7.83879C8.18833 10.9684 10.7254 13.5055 13.855 13.5055Z" fill="#EDF6F9"/>
<path d="M15.5267 30.0521C15.2146 29.7434 15.0109 29.3419 14.9462 28.9077C14.8815 28.4735 14.9592 28.0301 15.1678 27.6438L15.6683 26.6993L14.6389 26.3877C14.2191 26.2563 13.8536 25.9915 13.598 25.6336C13.3423 25.2756 13.2104 24.8441 13.2222 24.4043V22.4682C13.2214 22.0304 13.3615 21.604 13.6217 21.252C13.8819 20.8999 14.2485 20.6409 14.6672 20.5132L15.6967 20.2016L15.2056 19.2571C15.0031 18.8761 14.9261 18.4409 14.9855 18.0136C15.0448 17.5862 15.2375 17.1885 15.5361 16.8771C14.8095 16.7819 14.0778 16.7314 13.345 16.726C11.1806 16.675 9.0317 17.1023 7.05145 17.9774C5.0712 18.8524 3.30844 20.1536 1.88889 21.7882V29.1077C1.88889 29.3581 1.98839 29.5984 2.16551 29.7755C2.34263 29.9526 2.58285 30.0521 2.83333 30.0521H15.5267Z" fill="#EDF6F9"/>
<path d="M31.8278 22.1566L29.9389 21.5899C29.808 21.1235 29.6242 20.6735 29.3911 20.2488L30.3356 18.4921C30.3721 18.4269 30.3854 18.3513 30.3734 18.2775C30.3614 18.2038 30.3247 18.1363 30.2694 18.086L28.9 16.7071C28.8473 16.6558 28.78 16.6219 28.7074 16.6101C28.6347 16.5983 28.5602 16.6091 28.4939 16.641L26.7467 17.5855C26.3166 17.3519 25.8641 17.162 25.3961 17.0188L24.82 15.1299C24.7946 15.0603 24.7483 15.0002 24.6875 14.9579C24.6266 14.9156 24.5541 14.8932 24.48 14.8938H22.5156C22.4419 14.8959 22.3707 14.9205 22.3116 14.9645C22.2524 15.0084 22.2082 15.0695 22.185 15.1394L21.6183 17.0283C21.1412 17.1671 20.6817 17.3604 20.2489 17.6044L18.5394 16.6599C18.473 16.6246 18.3971 16.6111 18.3225 16.6212C18.248 16.6314 18.1785 16.6648 18.1239 16.7166L16.7356 18.0766C16.6809 18.1293 16.6449 18.1983 16.6329 18.2733C16.621 18.3483 16.6338 18.4251 16.6694 18.4921L17.6139 20.211C17.3609 20.6376 17.155 21.0905 17 21.5616L15.1111 22.1377C15.0397 22.1584 14.977 22.2019 14.9326 22.2616C14.8882 22.3213 14.8647 22.3939 14.8656 22.4683V24.4044C14.8647 24.4787 14.8882 24.5513 14.9326 24.611C14.977 24.6708 15.0397 24.7143 15.1111 24.7349L17 25.311C17.1416 25.7736 17.3315 26.2199 17.5667 26.6427L16.6222 28.4371C16.5866 28.5042 16.5738 28.581 16.5857 28.656C16.5976 28.731 16.6337 28.8 16.6883 28.8527L18.0956 30.2221C18.1501 30.274 18.2196 30.3073 18.2942 30.3175C18.3688 30.3277 18.4447 30.3141 18.5111 30.2788L20.2772 29.3344C20.6975 29.5604 21.1408 29.7409 21.5994 29.8727L22.1661 31.8088C22.1899 31.8802 22.2355 31.9424 22.2965 31.9864C22.3575 32.0305 22.4308 32.0543 22.5061 32.0544H24.4422C24.5159 32.0523 24.5871 32.0276 24.6462 31.9837C24.7054 31.9398 24.7495 31.8787 24.7728 31.8088L25.3394 29.8727C25.7926 29.7425 26.2298 29.562 26.6428 29.3344L28.4278 30.2788C28.4942 30.3141 28.5701 30.3277 28.6447 30.3175C28.7193 30.3073 28.7888 30.274 28.8433 30.2221L30.2222 28.8527C30.274 28.7981 30.3074 28.7286 30.3176 28.6541C30.3277 28.5795 30.3142 28.5036 30.2789 28.4371L29.3344 26.6616C29.5604 26.2478 29.7409 25.8108 29.8728 25.3583L31.7617 24.7821C31.8326 24.7593 31.895 24.7155 31.9405 24.6565C31.986 24.5975 32.0126 24.526 32.0167 24.4516V22.4966C32.019 22.4281 32.0026 22.3603 31.9693 22.3004C31.9361 22.2405 31.8871 22.1908 31.8278 22.1566ZM23.4883 26.6144C22.864 26.6162 22.2532 26.4328 21.7333 26.0873C21.2133 25.7419 20.8075 25.2499 20.5673 24.6736C20.3271 24.0974 20.2633 23.4629 20.3839 22.8503C20.5046 22.2378 20.8042 21.6749 21.245 21.2328C21.6858 20.7906 22.2478 20.4893 22.86 20.3668C23.4722 20.2443 24.1069 20.3062 24.6838 20.5447C25.2608 20.7832 25.754 21.1875 26.101 21.7064C26.4481 22.2254 26.6333 22.8356 26.6333 23.4599C26.6333 24.2949 26.3023 25.0958 25.7128 25.6871C25.1232 26.2784 24.3233 26.6119 23.4883 26.6144Z" fill="#EDF6F9"/>
</svg>
