<svg width="105" height="35" viewBox="0 0 105 35" fill="none" xmlns="http://www.w3.org/2000/svg">
<path d="M3.32031 8.6875C2.99219 8.59375 2.65234 8.45312 2.30078 8.26562C1.97266 8.05469 1.66797 7.82031 1.38672 7.5625C1.12891 7.28125 0.929688 6.97656 0.789062 6.64844C0.648438 6.32031 0.613281 5.96875 0.683594 5.59375C0.824219 4.82031 1.26953 4.09375 2.01953 3.41406C2.76953 2.73437 3.77734 2.19531 5.04297 1.79688V1.69141C5.06641 1.43359 5.23047 1.17578 5.53516 0.917969C5.86328 0.636719 6.26172 0.449219 6.73047 0.355469C7.17578 0.261719 7.49219 0.261719 7.67969 0.355469C7.89062 0.449219 7.99609 0.578125 7.99609 0.742188C7.99609 0.789063 7.98438 0.847656 7.96094 0.917969C7.96094 0.964844 7.96094 1.01172 7.96094 1.05859V1.23438C9.10938 1.14063 10.3867 1.17578 11.793 1.33984C13.4805 1.55078 14.8516 1.94922 15.9062 2.53516C16.9609 3.12109 17.7578 3.80078 18.2969 4.57422C18.8359 5.32422 19.1641 6.10937 19.2812 6.92969C19.4219 7.75 19.4219 8.5 19.2812 9.17969C19.1406 9.97656 18.8828 10.7031 18.5078 11.3594C18.1328 11.9922 17.6875 12.5664 17.1719 13.082C16.6562 13.5742 16.082 14.0078 15.4492 14.3828C14.8164 14.7578 14.1484 15.0742 13.4453 15.332C14.1953 15.4961 14.8281 15.7656 15.3438 16.1406C15.8828 16.4922 16.3164 16.9141 16.6445 17.4062C16.9727 17.8984 17.207 18.4492 17.3477 19.0586C17.4883 19.668 17.5352 20.2891 17.4883 20.9219C17.4414 21.9062 17.1836 22.832 16.7148 23.6992C16.2695 24.543 15.6602 25.2812 14.8867 25.9141C14.1133 26.5469 13.1875 27.0391 12.1094 27.3906C11.0547 27.7422 9.88281 27.8945 8.59375 27.8477H8.17188C7.82031 28.1523 7.43359 28.375 7.01172 28.5156C6.61328 28.6797 6.22656 28.7969 5.85156 28.8672C5.42969 28.9609 5.00781 28.9961 4.58594 28.9727C4.58594 28.8086 4.58594 28.6328 4.58594 28.4453C4.60938 28.2812 4.62109 28.1172 4.62109 27.9531C4.62109 27.7656 4.63281 27.5781 4.65625 27.3906C4.375 27.3438 4.10547 27.2734 3.84766 27.1797C3.61328 27.1094 3.36719 27.0273 3.10938 26.9336C2.875 26.8633 2.66406 26.7812 2.47656 26.6875C2.38281 26.5469 2.3125 26.3711 2.26562 26.1602C2.21875 25.9727 2.18359 25.7617 2.16016 25.5273C2.16016 25.3164 2.20703 25.0703 2.30078 24.7891C3.02734 25.0703 3.85938 25.2812 4.79688 25.4219C4.84375 24.2266 4.87891 22.8086 4.90234 21.168C4.94922 19.5273 4.97266 17.8047 4.97266 16C4.97266 13.9609 4.97266 11.957 4.97266 9.98828C4.99609 8.01953 5.00781 6.33203 5.00781 4.92578C4.32812 5.27734 3.80078 5.75781 3.42578 6.36719C3.05078 6.97656 3.01562 7.75 3.32031 8.6875ZM14.1484 21.0977C14.2422 20.0664 14.0898 19.2461 13.6914 18.6367C13.293 18.0039 12.7656 17.5352 12.1094 17.2305C11.4766 16.9023 10.7734 16.7031 10 16.6328C9.25 16.5625 8.57031 16.5508 7.96094 16.5977C8.00781 18.543 8.04297 20.3125 8.06641 21.9062C8.08984 23.4766 8.11328 24.7656 8.13672 25.7734C8.86328 25.7969 9.56641 25.7148 10.2461 25.5273C10.9258 25.3398 11.5352 25.0469 12.0742 24.6484C12.6367 24.25 13.1055 23.7578 13.4805 23.1719C13.8555 22.5625 14.0781 21.8711 14.1484 21.0977ZM7.89062 4.11719C7.84375 5.3125 7.82031 6.73047 7.82031 8.37109C7.82031 10.0117 7.84375 11.8398 7.89062 13.8555C7.89062 14.043 7.89062 14.2305 7.89062 14.418C7.89062 14.582 7.90234 14.7578 7.92578 14.9453C8.76953 14.875 9.64844 14.6758 10.5625 14.3477C11.4766 13.9961 12.3086 13.5391 13.0586 12.9766C13.832 12.4141 14.4648 11.7578 14.957 11.0078C15.4492 10.2344 15.6953 9.39062 15.6953 8.47656C15.6953 7.77344 15.5078 7.15234 15.1328 6.61328C14.7578 6.05078 14.2539 5.58203 13.6211 5.20703C13.0117 4.83203 12.2969 4.55078 11.4766 4.36328C10.6797 4.17578 9.84766 4.08203 8.98047 4.08203C8.79297 4.08203 8.60547 4.08203 8.41797 4.08203C8.25391 4.08203 8.07812 4.09375 7.89062 4.11719ZM30.3203 23.207C30.3672 23.3711 30.4375 23.5234 30.5312 23.6641C30.6016 23.7812 30.6953 23.8984 30.8125 24.0156C30.9531 24.1094 31.1172 24.168 31.3047 24.1914C31.1406 24.5195 30.9766 24.7422 30.8125 24.8594C30.7188 24.9297 30.6367 24.9766 30.5664 25C30.3555 25.0703 30.0391 25.1055 29.6172 25.1055C29.1953 25.1055 28.7852 24.9766 28.3867 24.7188C28.2461 24.6016 28.1172 24.4258 28 24.1914C27.8828 24.0039 27.7773 23.7461 27.6836 23.418C27.6133 23.0664 27.5547 22.6211 27.5078 22.082C27.1797 22.7852 26.8047 23.3477 26.3828 23.7695C25.9844 24.168 25.5859 24.4609 25.1875 24.6484C24.7422 24.9062 24.2852 25.0586 23.8164 25.1055C23.2305 25.1523 22.668 25.0586 22.1289 24.8242C21.6133 24.5664 21.168 24.1914 20.793 23.6992C20.4414 23.1836 20.1719 22.5625 19.9844 21.8359C19.7969 21.1094 19.7383 20.2891 19.8086 19.375C19.8789 18.4141 20.0664 17.5586 20.3711 16.8086C20.6758 16.0586 21.0391 15.3906 21.4609 14.8047C21.8828 14.2188 22.3281 13.7266 22.7969 13.3281C23.2656 12.9062 23.7109 12.5664 24.1328 12.3086C24.5781 12.0273 24.9531 11.8281 25.2578 11.7109C25.5859 11.5703 25.7969 11.4883 25.8906 11.4648C26.1484 11.3945 26.3711 11.3711 26.5586 11.3945C26.7461 11.418 26.9102 11.5234 27.0508 11.7109C27.0977 11.7812 27.1562 11.8633 27.2266 11.957C27.2734 12.0508 27.332 12.1797 27.4023 12.3438C27.4727 12.4844 27.5312 12.6484 27.5781 12.8359C27.0156 13.0938 26.4883 13.3867 25.9961 13.7148C25.5039 14.0195 25.0469 14.3945 24.625 14.8398C24.2266 15.2852 23.875 15.8242 23.5703 16.457C23.2656 17.0898 23.0312 17.8633 22.8672 18.7773C22.6328 19.9258 22.6914 20.8516 23.043 21.5547C23.418 22.2578 23.9219 22.5508 24.5547 22.4336C24.9297 22.3164 25.293 22.0938 25.6445 21.7656C25.9492 21.4844 26.2656 21.0625 26.5938 20.5C26.9453 19.9375 27.2734 19.1641 27.5781 18.1797C27.6953 16.7734 27.7891 15.6719 27.8594 14.875C27.9531 14.0547 28.0352 13.4336 28.1055 13.0117C28.1992 12.5195 28.2695 12.1914 28.3164 12.0273C28.3867 11.9102 28.5273 11.8047 28.7383 11.7109C28.9492 11.5938 29.1836 11.5 29.4414 11.4297C29.6992 11.3594 29.9336 11.3242 30.1445 11.3242C30.3555 11.3008 30.4961 11.3008 30.5664 11.3242C30.6133 11.3477 30.6367 11.6406 30.6367 12.2031C30.6367 12.7422 30.6133 13.4336 30.5664 14.2773C30.543 15.0977 30.5078 16 30.4609 16.9844C30.4141 17.9453 30.3672 18.8594 30.3203 19.7266C30.2969 20.5938 30.2734 21.3555 30.25 22.0117C30.25 22.6445 30.2734 23.043 30.3203 23.207ZM43.75 11.5C43.7969 13.5625 43.832 15.3672 43.8555 16.9141C43.8789 18.4609 43.9023 19.7617 43.9258 20.8164C43.9492 22.0586 43.9609 23.125 43.9609 24.0156C43.9844 25.1172 43.8906 26.2539 43.6797 27.4258C43.4922 28.6211 43.1758 29.7109 42.7305 30.6953C42.2852 31.6797 41.6992 32.4883 40.9727 33.1211C40.2461 33.7539 39.3672 34.0703 38.3359 34.0703C37.0938 34.0703 36.1445 33.8125 35.4883 33.2969C34.832 32.8047 34.3516 32.2422 34.0469 31.6094C33.7422 30.9766 33.5664 30.3789 33.5195 29.8164C33.4727 29.2773 33.4492 28.9609 33.4492 28.8672C33.4492 28.6797 33.5664 28.4688 33.8008 28.2344C34.0352 28 34.3867 27.7891 34.8555 27.6016C35.043 27.5312 35.2305 27.4727 35.418 27.4258C35.582 27.3789 35.7461 27.3438 35.9102 27.3203C36.0742 27.2969 36.2266 27.3086 36.3672 27.3555C36.1328 27.7773 35.9922 28.2578 35.9453 28.7969C35.9219 29.3359 35.9922 29.8398 36.1562 30.3086C36.3438 30.8008 36.6133 31.2109 36.9648 31.5391C37.3164 31.8672 37.7617 32.0312 38.3008 32.0312C39.0508 32.0312 39.6367 31.8086 40.0586 31.3633C40.5039 30.9414 40.832 30.4141 41.043 29.7812C41.2773 29.1484 41.418 28.4805 41.4648 27.7773C41.5352 27.0742 41.5703 26.4531 41.5703 25.9141C41.5703 25.4922 41.5586 24.9531 41.5352 24.2969C41.5352 23.6172 41.5 22.8672 41.4297 22.0469C41.1484 22.5156 40.8203 22.9727 40.4453 23.418C40.0703 23.8398 39.6719 24.2148 39.25 24.543C38.8281 24.8711 38.3945 25.1289 37.9492 25.3164C37.5273 25.5273 37.1055 25.6328 36.6836 25.6328C35.957 25.6328 35.3711 25.4102 34.9258 24.9648C34.4805 24.4961 34.1406 23.9219 33.9062 23.2422C33.6719 22.5391 33.5078 21.7891 33.4141 20.9922C33.3438 20.1719 33.3086 19.4219 33.3086 18.7422C33.3086 18.2266 33.332 17.6055 33.3789 16.8789C33.4258 16.1289 33.4844 15.4141 33.5547 14.7344C33.625 14.0547 33.707 13.4688 33.8008 12.9766C33.918 12.4609 34.0352 12.168 34.1523 12.0977C34.832 11.6992 35.5 11.4766 36.1562 11.4297C36.8125 11.3828 37.3047 11.4648 37.6328 11.6758C37.3516 11.8867 37.1172 12.2383 36.9297 12.7305C36.7422 13.2227 36.5898 13.7734 36.4727 14.3828C36.3555 14.9688 36.2734 15.5898 36.2266 16.2461C36.1797 16.8789 36.1562 17.4531 36.1562 17.9688C36.1562 18.3906 36.168 18.8945 36.1914 19.4805C36.2148 20.0664 36.2617 20.6289 36.332 21.168C36.4258 21.707 36.5547 22.1641 36.7188 22.5391C36.8828 22.9141 37.0938 23.1016 37.3516 23.1016C37.8672 23.1016 38.3477 22.9141 38.793 22.5391C39.2383 22.1641 39.625 21.6953 39.9531 21.1328C40.3047 20.5703 40.5742 19.9727 40.7617 19.3398C40.9492 18.6836 41.043 18.0742 41.043 17.5117V17.2305C40.9961 16.6211 40.9492 16.0469 40.9023 15.5078C40.8555 14.9453 40.8086 14.4414 40.7617 13.9961C40.7383 13.5508 40.7148 13.1875 40.6914 12.9062C40.6914 12.6016 40.6914 12.4023 40.6914 12.3086C40.6914 12.0742 40.8438 11.8633 41.1484 11.6758C41.4766 11.4883 41.8281 11.3594 42.2031 11.2891C42.6016 11.1953 42.9531 11.1602 43.2578 11.1836C43.5859 11.207 43.75 11.3125 43.75 11.5ZM56.6875 23.207C56.7344 23.3711 56.8047 23.5234 56.8984 23.6641C56.9688 23.7812 57.0625 23.8984 57.1797 24.0156C57.3203 24.1094 57.4844 24.168 57.6719 24.1914C57.5078 24.5195 57.3438 24.7422 57.1797 24.8594C57.0859 24.9297 57.0039 24.9766 56.9336 25C56.7227 25.0703 56.4062 25.1055 55.9844 25.1055C55.5625 25.1055 55.1523 24.9766 54.7539 24.7188C54.6133 24.6016 54.4844 24.4258 54.3672 24.1914C54.25 24.0039 54.1445 23.7461 54.0508 23.418C53.9805 23.0664 53.9219 22.6211 53.875 22.082C53.5469 22.7852 53.1719 23.3477 52.75 23.7695C52.3516 24.168 51.9531 24.4609 51.5547 24.6484C51.1094 24.9062 50.6523 25.0586 50.1836 25.1055C49.5977 25.1523 49.0352 25.0586 48.4961 24.8242C47.9805 24.5664 47.5352 24.1914 47.1602 23.6992C46.8086 23.1836 46.5391 22.5625 46.3516 21.8359C46.1641 21.1094 46.1055 20.2891 46.1758 19.375C46.2461 18.4141 46.4336 17.5586 46.7383 16.8086C47.043 16.0586 47.4062 15.3906 47.8281 14.8047C48.25 14.2188 48.6953 13.7266 49.1641 13.3281C49.6328 12.9062 50.0781 12.5664 50.5 12.3086C50.9453 12.0273 51.3203 11.8281 51.625 11.7109C51.9531 11.5703 52.1641 11.4883 52.2578 11.4648C52.5156 11.3945 52.7383 11.3711 52.9258 11.3945C53.1133 11.418 53.2773 11.5234 53.418 11.7109C53.4648 11.7812 53.5234 11.8633 53.5938 11.957C53.6406 12.0508 53.6992 12.1797 53.7695 12.3438C53.8398 12.4844 53.8984 12.6484 53.9453 12.8359C53.3828 13.0938 52.8555 13.3867 52.3633 13.7148C51.8711 14.0195 51.4141 14.3945 50.9922 14.8398C50.5938 15.2852 50.2422 15.8242 49.9375 16.457C49.6328 17.0898 49.3984 17.8633 49.2344 18.7773C49 19.9258 49.0586 20.8516 49.4102 21.5547C49.7852 22.2578 50.2891 22.5508 50.9219 22.4336C51.2969 22.3164 51.6602 22.0938 52.0117 21.7656C52.3164 21.4844 52.6328 21.0625 52.9609 20.5C53.3125 19.9375 53.6406 19.1641 53.9453 18.1797C54.0625 16.7734 54.1562 15.6719 54.2266 14.875C54.3203 14.0547 54.4023 13.4336 54.4727 13.0117C54.5664 12.5195 54.6367 12.1914 54.6836 12.0273C54.7539 11.9102 54.8945 11.8047 55.1055 11.7109C55.3164 11.5938 55.5508 11.5 55.8086 11.4297C56.0664 11.3594 56.3008 11.3242 56.5117 11.3242C56.7227 11.3008 56.8633 11.3008 56.9336 11.3242C56.9805 11.3477 57.0039 11.6406 57.0039 12.2031C57.0039 12.7422 56.9805 13.4336 56.9336 14.2773C56.9102 15.0977 56.875 16 56.8281 16.9844C56.7812 17.9453 56.7344 18.8594 56.6875 19.7266C56.6641 20.5938 56.6406 21.3555 56.6172 22.0117C56.6172 22.6445 56.6406 23.043 56.6875 23.207ZM69.2383 14.207C69.2383 14.5352 69.1445 14.875 68.957 15.2266C68.793 15.5547 68.582 15.8711 68.3242 16.1758C68.0664 16.4805 67.7734 16.75 67.4453 16.9844C67.1406 17.1953 66.8477 17.3242 66.5664 17.3711C66.7539 16.6445 66.8125 16.082 66.7422 15.6836C66.6719 15.2852 66.5547 14.9922 66.3906 14.8047C66.2031 14.5938 65.9688 14.4766 65.6875 14.4531C65.2656 14.4531 64.8555 14.6992 64.457 15.1914C64.082 15.6602 63.7539 16.2461 63.4727 16.9492C63.1914 17.6289 62.9688 18.3672 62.8047 19.1641C62.6406 19.9375 62.5586 20.6406 62.5586 21.2734C62.5352 21.7188 62.5469 22.1523 62.5938 22.5742C62.6172 22.9258 62.6523 23.2891 62.6992 23.6641C62.7695 24.0391 62.8633 24.332 62.9805 24.543C62.8398 24.6602 62.6055 24.8008 62.2773 24.9648C61.9727 25.1289 61.6445 25.2344 61.293 25.2812C60.9648 25.3281 60.6602 25.2695 60.3789 25.1055C60.1211 24.9414 59.9805 24.5898 59.957 24.0508C59.9102 23.5352 59.875 22.9609 59.8516 22.3281C59.8516 21.6719 59.8516 21.0273 59.8516 20.3945C59.875 19.7383 59.8984 19.0938 59.9219 18.4609C59.9453 17.8281 59.9805 17.2422 60.0273 16.7031C60.0742 15.6719 60.0977 14.875 60.0977 14.3125C60.0977 13.75 60.0859 13.2109 60.0625 12.6953C60.0625 12.6016 60.2148 12.4727 60.5195 12.3086C60.8477 12.1211 61.1992 11.957 61.5742 11.8164C61.9727 11.6758 62.3359 11.5938 62.6641 11.5703C62.9922 11.5469 63.1562 11.6172 63.1562 11.7812C63.1562 12.0391 63.1211 12.5547 63.0508 13.3281C63.0039 14.0781 62.9336 14.8633 62.8398 15.6836C63.0039 15.2383 63.2148 14.7578 63.4727 14.2422C63.7539 13.7266 64.0703 13.2461 64.4219 12.8008C64.7734 12.3555 65.1719 11.9922 65.6172 11.7109C66.0625 11.4062 66.5547 11.2539 67.0938 11.2539C67.5156 11.2539 67.8555 11.3828 68.1133 11.6406C68.3945 11.8984 68.6172 12.1914 68.7812 12.5195C68.9453 12.8477 69.0625 13.1758 69.1328 13.5039C69.2031 13.832 69.2383 14.0664 69.2383 14.207ZM75.0742 25.3867C73.4336 25.3867 72.168 24.8359 71.2773 23.7344C70.3867 22.6328 69.9414 21.1914 69.9414 19.4102C69.9414 18.168 70.1172 17.0078 70.4688 15.9297C70.8438 14.8281 71.3359 13.8789 71.9453 13.082C72.5547 12.2852 73.2578 11.6641 74.0547 11.2188C74.875 10.75 75.7305 10.5156 76.6211 10.5156C77.4883 10.5156 78.2266 10.832 78.8359 11.4648C79.4453 12.0742 79.75 12.9531 79.75 14.1016C79.75 14.8516 79.5859 15.6016 79.2578 16.3516C78.9297 17.0781 78.4961 17.7344 77.957 18.3203C77.4414 18.8828 76.8672 19.3398 76.2344 19.6914C75.6016 20.043 74.9922 20.2188 74.4062 20.2188C74.0312 20.2188 73.7148 20.1719 73.457 20.0781C73.1992 19.9844 72.9648 19.8438 72.7539 19.6562C72.8242 20.9922 73.1172 21.9297 73.6328 22.4688C74.1484 22.9844 74.8164 23.2422 75.6367 23.2422C76.1992 23.2422 76.6914 23.125 77.1133 22.8906C77.5586 22.6562 77.9336 22.3867 78.2383 22.082C78.543 21.7773 78.7891 21.4727 78.9766 21.168C79.1641 20.8398 79.293 20.5938 79.3633 20.4297C79.4336 20.2891 79.5508 20.2188 79.7148 20.2188C79.9023 20.2188 79.9961 20.3594 79.9961 20.6406C79.9961 20.8984 79.9023 21.2969 79.7148 21.8359C79.5508 22.3516 79.2695 22.8789 78.8711 23.418C78.4727 23.9336 77.957 24.3906 77.3242 24.7891C76.7148 25.1875 75.9648 25.3867 75.0742 25.3867ZM76.6914 12.0273C76.5508 12.0273 76.2812 12.1797 75.8828 12.4844C75.5078 12.7656 75.0977 13.1875 74.6523 13.75C74.2305 14.3125 73.832 14.9922 73.457 15.7891C73.1055 16.5625 72.8828 17.4414 72.7891 18.4258C74.1953 18.0977 75.3086 17.582 76.1289 16.8789C76.9492 16.1758 77.3594 15.1445 77.3594 13.7852C77.3594 13.1055 77.2773 12.6484 77.1133 12.4141C76.9492 12.1562 76.8086 12.0273 76.6914 12.0273ZM86.7461 25.3867C85.1055 25.3867 83.8398 24.8359 82.9492 23.7344C82.0586 22.6328 81.6133 21.1914 81.6133 19.4102C81.6133 18.168 81.7891 17.0078 82.1406 15.9297C82.5156 14.8281 83.0078 13.8789 83.6172 13.082C84.2266 12.2852 84.9297 11.6641 85.7266 11.2188C86.5469 10.75 87.4023 10.5156 88.293 10.5156C89.1602 10.5156 89.8984 10.832 90.5078 11.4648C91.1172 12.0742 91.4219 12.9531 91.4219 14.1016C91.4219 14.8516 91.2578 15.6016 90.9297 16.3516C90.6016 17.0781 90.168 17.7344 89.6289 18.3203C89.1133 18.8828 88.5391 19.3398 87.9062 19.6914C87.2734 20.043 86.6641 20.2188 86.0781 20.2188C85.7031 20.2188 85.3867 20.1719 85.1289 20.0781C84.8711 19.9844 84.6367 19.8438 84.4258 19.6562C84.4961 20.9922 84.7891 21.9297 85.3047 22.4688C85.8203 22.9844 86.4883 23.2422 87.3086 23.2422C87.8711 23.2422 88.3633 23.125 88.7852 22.8906C89.2305 22.6562 89.6055 22.3867 89.9102 22.082C90.2148 21.7773 90.4609 21.4727 90.6484 21.168C90.8359 20.8398 90.9648 20.5938 91.0352 20.4297C91.1055 20.2891 91.2227 20.2188 91.3867 20.2188C91.5742 20.2188 91.668 20.3594 91.668 20.6406C91.668 20.8984 91.5742 21.2969 91.3867 21.8359C91.2227 22.3516 90.9414 22.8789 90.543 23.418C90.1445 23.9336 89.6289 24.3906 88.9961 24.7891C88.3867 25.1875 87.6367 25.3867 86.7461 25.3867ZM88.3633 12.0273C88.2227 12.0273 87.9531 12.1797 87.5547 12.4844C87.1797 12.7656 86.7695 13.1875 86.3242 13.75C85.9023 14.3125 85.5039 14.9922 85.1289 15.7891C84.7773 16.5625 84.5547 17.4414 84.4609 18.4258C85.8672 18.0977 86.9805 17.582 87.8008 16.8789C88.6211 16.1758 89.0312 15.1445 89.0312 13.7852C89.0312 13.1055 88.9492 12.6484 88.7852 12.4141C88.6211 12.1562 88.4805 12.0273 88.3633 12.0273ZM97.3633 24.0508C97.3398 24.1914 97.2109 24.3438 96.9766 24.5078C96.7656 24.6484 96.5078 24.7773 96.2031 24.8945C95.9219 25.0117 95.6523 25.082 95.3945 25.1055C95.1367 25.1523 94.9609 25.1289 94.8672 25.0352C94.7734 24.9414 94.6211 24.7656 94.4102 24.5078C94.1992 24.25 94.0703 23.8281 94.0234 23.2422C93.9766 22.6328 93.9531 21.8711 93.9531 20.957C93.9531 20.0195 93.9414 18.9883 93.918 17.8633V16.457C93.918 16.0352 93.9062 15.543 93.8828 14.9805C93.8828 14.418 93.8711 13.832 93.8477 13.2227C94.0586 13.1055 94.2695 13 94.4805 12.9062C94.7148 12.7891 94.9258 12.6953 95.1133 12.625C95.3242 12.5312 95.5234 12.4609 95.7109 12.4141C96.2031 12.2734 96.5781 12.1914 96.8359 12.168C97.0938 12.1445 97.2461 12.2266 97.293 12.4141C97.3164 12.5547 97.3047 12.8945 97.2578 13.4336C97.2109 13.9023 97.1523 14.6172 97.082 15.5781C97.0117 16.5156 96.8945 17.8281 96.7305 19.5156C97.0352 18.7656 97.2812 18.1211 97.4688 17.582C97.6797 17.043 97.8555 16.6094 97.9961 16.2812C98.1367 15.8828 98.2656 15.5664 98.3828 15.332C98.5 15.0273 98.6523 14.6875 98.8398 14.3125C99.0273 13.9375 99.2148 13.5859 99.4023 13.2578C99.6133 12.9297 99.8008 12.6367 99.9648 12.3789C100.152 12.1211 100.293 11.9688 100.387 11.9219C100.457 11.875 100.668 11.875 101.02 11.9219C101.371 11.9688 101.746 12.0859 102.145 12.2734C102.543 12.4375 102.93 12.6836 103.305 13.0117C103.68 13.3164 103.926 13.6914 104.043 14.1367C104.184 14.6523 104.23 15.332 104.184 16.1758C104.16 17.0195 104.102 17.8867 104.008 18.7773C103.938 19.668 103.879 20.5117 103.832 21.3086C103.785 22.1055 103.832 22.7148 103.973 23.1367C104.02 23.3711 104.09 23.582 104.184 23.7695C104.23 23.957 104.289 24.1328 104.359 24.2969C104.453 24.4375 104.547 24.543 104.641 24.6133C104.078 24.8711 103.621 25.0586 103.27 25.1758C102.918 25.293 102.648 25.375 102.461 25.4219C102.227 25.4922 102.062 25.5156 101.969 25.4922C101.758 25.4219 101.57 25.2461 101.406 24.9648C101.266 24.6836 101.137 24.2383 101.02 23.6289C100.973 23.4414 100.949 23.1367 100.949 22.7148C100.973 22.2695 101.008 21.7773 101.055 21.2383C101.102 20.6758 101.148 20.1016 101.195 19.5156C101.266 18.9062 101.312 18.3438 101.336 17.8281C101.383 17.2891 101.418 16.832 101.441 16.457C101.465 16.0586 101.465 15.7891 101.441 15.6484C101.324 15.2266 101.16 14.9336 100.949 14.7695C100.738 14.582 100.574 14.5586 100.457 14.6992C100.152 15.0508 99.8242 15.625 99.4727 16.4219C99.1445 17.1953 98.8281 18.0508 98.5234 18.9883C98.2188 19.9023 97.9609 20.8164 97.75 21.7305C97.5391 22.6445 97.4102 23.418 97.3633 24.0508Z" fill="white"/>
</svg>
