<svg width="17" height="18" viewBox="0 0 17 18" fill="none" xmlns="http://www.w3.org/2000/svg">
<path d="M6.09888 7.27268V13.0909C6.09888 13.2837 6.1792 13.4687 6.32218 13.6051C6.46515 13.7415 6.65907 13.8181 6.86127 13.8181C7.06347 13.8181 7.25738 13.7415 7.40036 13.6051C7.54333 13.4687 7.62366 13.2837 7.62366 13.0909V7.27268C7.62366 7.0798 7.54333 6.89481 7.40036 6.75842C7.25738 6.62203 7.06347 6.54541 6.86127 6.54541C6.65907 6.54541 6.46515 6.62203 6.32218 6.75842C6.1792 6.89481 6.09888 7.0798 6.09888 7.27268Z" fill="#EDF6F9"/>
<path d="M9.91064 6.54541C10.1128 6.54541 10.3067 6.62203 10.4497 6.75842C10.5927 6.89481 10.673 7.0798 10.673 7.27268V13.0909C10.673 13.2837 10.5927 13.4687 10.4497 13.6051C10.3067 13.7415 10.1128 13.8181 9.91064 13.8181C9.70846 13.8181 9.51456 13.7415 9.3716 13.6051C9.22863 13.4687 9.14832 13.2837 9.14832 13.0909V7.27268C9.14832 7.0798 9.22863 6.89481 9.3716 6.75842C9.51456 6.62203 9.70846 6.54541 9.91064 6.54541Z" fill="#EDF6F9"/>
<path d="M11.4354 2.90909H16.0096C16.2118 2.90909 16.4057 2.98571 16.5487 3.1221C16.6917 3.25849 16.772 3.44348 16.772 3.63636C16.772 3.82925 16.6917 4.01423 16.5487 4.15062C16.4057 4.28701 16.2118 4.36364 16.0096 4.36364H15.1664L14.0198 14.2196C13.9163 15.1091 13.4725 15.931 12.7734 16.5278C12.0743 17.1247 11.1691 17.4546 10.2309 17.4545H6.54107C5.60291 17.4546 4.69765 17.1247 3.99858 16.5278C3.2995 15.931 2.8557 15.1091 2.75213 14.2196L1.60401 4.36364H0.762362C0.560171 4.36364 0.366262 4.28701 0.223291 4.15062C0.0803202 4.01423 0 3.82925 0 3.63636C0 3.44348 0.0803202 3.25849 0.223291 3.1221C0.366262 2.98571 0.560171 2.90909 0.762362 2.90909H5.33654C5.33654 2.13755 5.65782 1.39761 6.2297 0.852053C6.80158 0.306492 7.57722 0 8.38599 0C9.19475 0 9.97039 0.306492 10.5423 0.852053C11.1142 1.39761 11.4354 2.13755 11.4354 2.90909V2.90909ZM8.38599 1.45455C7.9816 1.45455 7.59379 1.60779 7.30784 1.88057C7.0219 2.15335 6.86126 2.52332 6.86126 2.90909H9.91071C9.91071 2.52332 9.75007 2.15335 9.46413 1.88057C9.17819 1.60779 8.79037 1.45455 8.38599 1.45455V1.45455ZM3.13941 4.36364L4.2677 14.0596C4.32999 14.5932 4.59633 15.0862 5.01576 15.4442C5.43519 15.8022 5.97827 16.0001 6.54107 16H10.2309C10.7934 15.9997 11.3361 15.8017 11.7553 15.4437C12.1744 15.0857 12.4405 14.593 12.5027 14.0596L13.6341 4.36364H3.14093H3.13941Z" fill="#EDF6F9"/>
</svg>
