<svg width="28" height="28" viewBox="0 0 28 28" fill="none" xmlns="http://www.w3.org/2000/svg">
<path d="M2.33333 13.9999L8.16667 18.6666V15.1666H18.6667V12.8333H8.16667V9.33325L2.33333 13.9999Z" fill="#EDF6F9"/>
<path d="M15.1678 3.49882C13.7883 3.49499 12.4217 3.76495 11.1472 4.29304C9.87273 4.82114 8.71571 5.59688 7.74317 6.57532L9.39283 8.22499C10.9352 6.68265 12.9862 5.83215 15.1678 5.83215C17.3495 5.83215 19.4005 6.68265 20.9428 8.22499C22.4852 9.76732 23.3357 11.8183 23.3357 14C23.3357 16.1817 22.4852 18.2327 20.9428 19.775C19.4005 21.3173 17.3495 22.1678 15.1678 22.1678C12.9862 22.1678 10.9352 21.3173 9.39283 19.775L7.74317 21.4247C9.72533 23.408 12.362 24.5012 15.1678 24.5012C17.9737 24.5012 20.6103 23.408 22.5925 21.4247C24.5758 19.4425 25.669 16.8058 25.669 14C25.669 11.1942 24.5758 8.55749 22.5925 6.57532C21.62 5.59688 20.4629 4.82114 19.1885 4.29304C17.914 3.76495 16.5474 3.49499 15.1678 3.49882V3.49882Z" fill="#EDF6F9"/>
</svg>
