<svg width="24" height="24" viewBox="0 0 24 24" fill="none" xmlns="http://www.w3.org/2000/svg">
<path d="M19.0267 8.66658H4.97337C4.79656 8.66658 4.62699 8.59635 4.50196 8.47132C4.37694 8.3463 4.3067 8.17673 4.3067 7.99992C4.3067 7.82311 4.37694 7.65354 4.50196 7.52851C4.62699 7.40349 4.79656 7.33325 4.97337 7.33325H19.0267C19.2035 7.33325 19.3731 7.40349 19.4981 7.52851C19.6231 7.65354 19.6934 7.82311 19.6934 7.99992C19.6934 8.17673 19.6231 8.3463 19.4981 8.47132C19.3731 8.59635 19.2035 8.66658 19.0267 8.66658Z" fill="#006D77"/>
<path d="M14.1134 12.6666H4.97337C4.79656 12.6666 4.62699 12.5963 4.50196 12.4713C4.37694 12.3463 4.3067 12.1767 4.3067 11.9999C4.3067 11.8231 4.37694 11.6535 4.50196 11.5285C4.62699 11.4035 4.79656 11.3333 4.97337 11.3333H14.1134C14.2902 11.3333 14.4597 11.4035 14.5848 11.5285C14.7098 11.6535 14.78 11.8231 14.78 11.9999C14.78 12.1767 14.7098 12.3463 14.5848 12.4713C14.4597 12.5963 14.2902 12.6666 14.1134 12.6666Z" fill="#006D77"/>
<path d="M9.16003 16.6666H4.97337C4.79656 16.6666 4.62699 16.5963 4.50196 16.4713C4.37694 16.3463 4.3067 16.1767 4.3067 15.9999C4.3067 15.8231 4.37694 15.6535 4.50196 15.5285C4.62699 15.4035 4.79656 15.3333 4.97337 15.3333H9.16003C9.33685 15.3333 9.50642 15.4035 9.63144 15.5285C9.75646 15.6535 9.8267 15.8231 9.8267 15.9999C9.8267 16.1767 9.75646 16.3463 9.63144 16.4713C9.50642 16.5963 9.33685 16.6666 9.16003 16.6666Z" fill="#006D77"/>
</svg>
