<svg width="17" height="16" viewBox="0 0 17 16" fill="none" xmlns="http://www.w3.org/2000/svg">
<path d="M15.3023 0.00200023C16.1133 0.00200023 16.77 0.786147 16.77 1.75233V14.2497C16.77 14.7139 16.6154 15.1591 16.3401 15.4873C16.0649 15.8156 15.6915 16 15.3023 16H9.22413C9.15116 16 9.07987 15.994 9.00942 15.982V0.0210038C9.07903 0.0090016 9.15116 0.00200023 9.22413 0.00200023H15.3023ZM7.54671 0C7.61632 0 7.6851 0.00600132 7.75219 0.0170034V15.982C7.68411 15.9933 7.61545 15.999 7.54671 15.999H1.46774C1.27492 15.999 1.084 15.9537 0.905868 15.8657C0.727738 15.7776 0.565899 15.6486 0.429595 15.486C0.293292 15.3233 0.185196 15.1303 0.111485 14.9178C0.0377729 14.7053 -0.000109942 14.4776 2.39654e-07 14.2477V1.75033C2.39654e-07 0.783147 0.657549 0 1.46774 0H7.54671ZM13 2.99956L12.9145 3.00656L12.8323 3.02657C12.715 3.06468 12.6095 3.14248 12.5285 3.25058C12.4475 3.35868 12.3946 3.49244 12.376 3.63568L12.3693 3.7477V10.446L11.5608 9.48678L11.4895 9.41477C11.3679 9.30808 11.2183 9.25671 11.0678 9.26991C10.9172 9.28312 10.7756 9.36003 10.6684 9.48678C10.5616 9.61343 10.4967 9.78179 10.4856 9.96093C10.4745 10.1401 10.5179 10.318 10.608 10.462L10.6684 10.546L12.5538 12.7834L12.6444 12.8724L12.709 12.9184L12.8029 12.9654L12.8834 12.9894L12.9606 13.0014H13.0394L13.1174 12.9894L13.1694 12.9754L13.2541 12.9394L13.3053 12.9094L13.3615 12.8674L13.4143 12.8184L13.4462 12.7834L15.3316 10.546L15.392 10.462C15.4712 10.3351 15.5146 10.1814 15.5158 10.0232C15.517 9.86497 15.476 9.7104 15.3987 9.5818L15.3316 9.48678L15.2603 9.41477C15.1529 9.32074 15.0234 9.26946 14.8901 9.2682C14.7569 9.26694 14.6267 9.31578 14.5181 9.40776L14.4392 9.48778L13.6299 10.446L13.6307 3.7477L13.6248 3.64668C13.6059 3.48439 13.5429 3.33395 13.4456 3.21836C13.3482 3.10277 13.2217 3.02838 13.0855 3.00656L13 2.99956Z" fill="white"/>
</svg>
