<svg width="28" height="28" viewBox="0 0 28 28" fill="none" xmlns="http://www.w3.org/2000/svg">
<path fill-rule="evenodd" clip-rule="evenodd" d="M19.0908 10.1817C19.0908 11.5319 18.5545 12.8268 17.5998 13.7815C16.645 14.7363 15.3501 15.2726 13.9999 15.2726C12.6497 15.2726 11.3549 14.7363 10.4001 13.7815C9.44539 12.8268 8.90903 11.5319 8.90903 10.1817C8.90903 8.83154 9.44539 7.53664 10.4001 6.58191C11.3549 5.62718 12.6497 5.09082 13.9999 5.09082C15.3501 5.09082 16.645 5.62718 17.5998 6.58191C18.5545 7.53664 19.0908 8.83154 19.0908 10.1817ZM16.5454 10.1817C16.5454 10.8568 16.2772 11.5043 15.7998 11.9816C15.3225 12.459 14.675 12.7272 13.9999 12.7272C13.3248 12.7272 12.6774 12.459 12.2 11.9816C11.7227 11.5043 11.4545 10.8568 11.4545 10.1817C11.4545 9.50663 11.7227 8.85919 12.2 8.38182C12.6774 7.90446 13.3248 7.63628 13.9999 7.63628C14.675 7.63628 15.3225 7.90446 15.7998 8.38182C16.2772 8.85919 16.5454 9.50663 16.5454 10.1817Z" fill="white"/>
<path fill-rule="evenodd" clip-rule="evenodd" d="M14 0C6.26818 0 0 6.26818 0 14C0 21.7318 6.26818 28 14 28C21.7318 28 28 21.7318 28 14C28 6.26818 21.7318 0 14 0ZM2.54545 14C2.54545 16.66 3.45291 19.1087 4.97382 21.0535C6.04193 19.6508 7.41987 18.514 9.00001 17.732C10.5801 16.95 12.3197 16.5439 14.0827 16.5455C15.823 16.5438 17.5406 16.9394 19.1048 17.7021C20.669 18.4648 22.0385 19.5744 23.1089 20.9465C24.2117 19.5002 24.9542 17.8121 25.275 16.0218C25.5958 14.2316 25.4856 12.3907 24.9537 10.6514C24.4218 8.91219 23.4834 7.32461 22.2161 6.02005C20.9488 4.71549 19.389 3.73146 17.6659 3.14937C15.9428 2.56729 14.1059 2.40389 12.3071 2.67269C10.5083 2.94149 8.79937 3.63477 7.32171 4.69516C5.84404 5.75555 4.64012 7.15256 3.80956 8.77061C2.97901 10.3887 2.54568 12.1812 2.54545 14V14ZM14 25.4545C11.3705 25.4585 8.82034 24.5539 6.78109 22.8938C7.60191 21.7188 8.69443 20.7594 9.9657 20.0972C11.237 19.4351 12.6494 19.0899 14.0827 19.0909C15.4982 19.0898 16.8935 19.4264 18.1528 20.0727C19.4121 20.7191 20.499 21.6565 21.3233 22.8073C19.2682 24.5213 16.676 25.4583 14 25.4545V25.4545Z" fill="white"/>
</svg>
